<svg width="64" height="64" viewBox="0 0 64 64" fill="none" xmlns="http://www.w3.org/2000/svg">
  <path d="M30.8873 7.62591C31.1943 7.45099 31.5709 7.45105 31.8778 7.62609L40.8275 12.7298C41.1342 12.9047 41.5103 12.9049 41.8172 12.7305L44.8357 11.0142C45.5094 10.6311 45.5101 9.66039 44.8369 9.27632L31.8782 1.88285C31.5711 1.70761 31.1942 1.70762 30.887 1.88288L7.88292 15.0095C7.21064 15.3931 7.21033 16.3623 7.88236 16.7463L10.8808 18.4598C11.1879 18.6353 11.5648 18.6355 11.872 18.4605L30.8873 7.62591Z" fill="#1F2937" />
  <path d="M52.2936 13.3106C51.9866 13.1359 51.6102 13.1361 51.3035 13.3112L32.3004 24.1536C31.9932 24.3289 31.6163 24.3289 31.3091 24.1536L22.3607 19.0469C22.0536 18.8716 21.6767 18.8715 21.3696 19.0468L18.3606 20.7632C17.688 21.1469 17.6879 22.1166 18.3605 22.5004L31.3093 29.889C31.6164 30.0642 31.9931 30.0642 32.3003 29.8891L55.3131 16.7661C55.9863 16.3822 55.9859 15.4115 55.3123 15.0282L52.2936 13.3106Z" fill="#319795" />
  <path d="M10.3846 33.6218C10.3846 33.2646 10.194 32.9345 9.88471 32.7559L6.90965 31.0377C6.24299 30.6527 5.40955 31.1338 5.40955 31.9037V46.7075C5.40955 47.0646 5.59993 47.3945 5.90904 47.5732L28.6709 60.7325C29.3376 61.1179 30.1714 60.6368 30.1714 59.8667V56.4305C30.1714 56.0735 29.9811 55.7435 29.6721 55.5648L10.884 44.7001C10.5749 44.5213 10.3846 44.1914 10.3846 43.8344V33.6218Z" fill="#319795" />
  <path d="M5.40955 23.1425C5.40955 23.495 5.59517 23.8215 5.89812 24.0018L24.7078 35.1963C25.0108 35.3766 25.1964 35.7031 25.1964 36.0557V46.6309C25.1964 46.9828 25.3813 47.3088 25.6834 47.4893L28.6585 49.2673C29.325 49.6656 30.1714 49.1854 30.1714 48.4089V33.0954C30.1714 32.7429 29.9858 32.4164 29.6829 32.2361L6.92095 18.69C6.25438 18.2933 5.40955 18.7736 5.40955 19.5493V23.1425Z" fill="#1F2937" />
  <path d="M46.8129 29.6819C47.1231 29.5035 47.3143 29.1729 47.3143 28.8151V25.234C47.3143 24.4649 46.4822 23.9837 45.8155 24.3673L32.5774 31.9848C32.2673 32.1633 32.0762 32.4938 32.0762 32.8516V59.8705C32.0762 60.6397 32.9085 61.1209 33.5751 60.7371L36.689 58.9443C36.999 58.7658 37.1901 58.4354 37.1901 58.0777V35.796C37.1901 35.4381 37.3813 35.1076 37.6914 34.9291L46.8129 29.6819Z" fill="#1F2937" />
  <path d="M53.1656 20.4465C52.8551 20.6249 52.6636 20.9556 52.6636 21.3137V43.5828C52.6636 43.9401 52.473 44.2702 52.1636 44.4488L43.0524 49.7085C42.743 49.8871 42.5524 50.2172 42.5524 50.5745V54.1553C42.5524 54.9248 43.385 55.4059 44.0517 55.0218L57.2898 47.393C57.5996 47.2145 57.7905 46.8842 57.7905 46.5266V19.518C57.7905 18.7492 56.9591 18.268 56.2924 18.6508L53.1656 20.4465Z" fill="#319795" />
</svg>